# xmcd
#
# Track frame offsets: 
#        150
#        14545
#        27301
#        44307
#        57439
#        78779
#        91862
#
# Disc length: 1528 seconds
#
# Revision: 0
# Processed by: cddbd v1.5.2PL0 Copyright (c) Steve Scherf et al.
# Submitted via: ExactAudioCopy v0.99pb4
#
DISCID=4b05f607
DTITLE=Julie Black - Live on WMNF April 9 2009
DYEAR=2009
DGENRE=Blues
TTITLE0=1- Under the Gun
TTITLE1=2- I'm Free
TTITLE2=3- You Don't Have to Stay
TTITLE3=4- Something I Crave
TTITLE4=6- Both of Us
TTITLE5=7- Love Her Anyway
TTITLE6=8- Love This Mama
EXTD=
EXTT0=
EXTT1=
EXTT2=
EXTT3=
EXTT4=
EXTT5=
EXTT6=
PLAYORDER=
